<svg width="24" height="24" viewBox="0 0 24 24" fill="none" xmlns="http://www.w3.org/2000/svg">
    <path
        d="M21.8062 12.2302C21.8062 11.5504 21.7511 10.867 21.6335 10.1982H12.2012V14.0491H17.6026C17.3785 15.2911 16.6583 16.3897 15.6037 17.0879V19.5865H18.8262C20.7186 17.8448 21.8062 15.2727 21.8062 12.2302Z"
        fill="#4285F4" />
    <path
        d="M12.2009 22.0008C14.898 22.0008 17.1725 21.1153 18.8297 19.5867L15.6072 17.0881C14.7106 17.698 13.5532 18.0434 12.2046 18.0434C9.59575 18.0434 7.38372 16.2833 6.59004 13.917H3.26465V16.4928C4.96225 19.8696 8.41992 22.0008 12.2009 22.0008Z"
        fill="#34A853" />
    <path
        d="M6.58665 13.9168C6.16776 12.6748 6.16776 11.33 6.58665 10.088V7.51221H3.26493C1.84659 10.3379 1.84659 13.6669 3.26493 16.4926L6.58665 13.9168Z"
        fill="#FBBC04" />
    <path
        d="M12.2009 5.95807C13.6266 5.93603 15.0046 6.4725 16.0371 7.45725L18.8921 4.6022C17.0843 2.90459 14.6849 1.97128 12.2009 2.00067C8.41992 2.00067 4.96225 4.13186 3.26465 7.51237L6.58637 10.0882C7.37638 7.71814 9.59208 5.95807 12.2009 5.95807Z"
        fill="#EA4335" />
</svg>
    